# AST/ASF file generated using VICON BodyLanguage
# -----------------------------------------------
:version 1.10
:name VICON
:units
  mass 1.0
  length 0.45
  angle deg
:documentation
   .ast/.asf automatically generated from VICON data using
   VICON BodyBuilder and BodyLanguage model FoxedUp or BRILLIANT.MOD
:root
   order TX TY TZ RX RY RZ
   axis XYZ
   position 0 0 0  
   orientation 0 0 0 
:bonedata
  begin
     id 1 
     name lhipjoint
     direction 0.711131 -0.61297 0.344326 
     length 2.29162 
     axis 0 0 0  XYZ
  end
  begin
     id 2 
     name lfemur
     direction 0.34202 -0.939693 0  
     length 6.71424  
     axis 0 0 20  XYZ
    dof rx ry rz
    limits (-160.0 20.0)
           (-70.0 70.0)
           (-60.0 70.0)
  end
  begin
     id 3 
     name ltibia
     direction 0.34202 -0.939693 0   
     length 6.7087   
     axis 0 0 20   XYZ
    dof rx
    limits (-10.0 170.0)
  end
  begin
     id 4 
     name lfoot
     direction 0.0230374 -0.0632947 0.997729   
     length 1.56743   
     axis -90 7.62852e-016 20   XYZ
    dof rx rz
    limits (-45.0 90.0)
           (-70.0 20.0)
  end
  begin
     id 5 
     name ltoes
     direction 1.53585e-011 -4.21885e-011 1   
     length 0.802914   
     axis -90 7.62852e-016 20   XYZ
    dof rx
    limits (-90.0 20.0)
  end
  begin
     id 6 
     name rhipjoint
     direction -0.733192 -0.592884 0.333043   
     length 2.36925  
     axis 0 0 0  XYZ 
  end
  begin
     id 7 
     name rfemur
     direction -0.34202 -0.939693 0   
     length 6.67027   
     axis 0 0 -20   XYZ
    dof rx ry rz
    limits (-160.0 20.0)
           (-70.0 70.0)
           (-70.0 60.0)
  end
  begin
     id 8 
     name rtibia
     direction -0.34202 -0.939693 0   
     length 6.6862   
     axis 0 0 -20   XYZ
    dof rx
    limits (-10.0 170.0)
 end
 begin
     id 9 
     name rfoot
     direction -0.0949739 -0.260939 0.960672   
     length 1.67698  
     axis -90 -7.62852e-016 -20   XYZ
    dof rx rz
    limits (-45.0 90.0)
           (-20.0 70.0)
  end
  begin
     id 10 
     name rtoes
     direction -1.5353e-011 -4.21868e-011 1   
     length 0.846298   
     axis -90 -7.62852e-016 -20   XYZ
    dof rx
    limits (-90.0 20.0)
  end
  begin
     id 11 
     name lowerback
     direction -0.0206828 0.999785 -0.00109866   
     length 2.04382   
     axis 0 0 0   XYZ
    dof rx ry rz
    limits (-20.0 45.0)
           (-30.0 30.0)
           (-30.0 30.0)
  end
  begin
     id 12 
     name upperback
     direction -0.0105003 0.999727 -0.0208904   
     length 2.04538   
     axis 0 0 0   XYZ
    dof rx ry rz
    limits (-20.0 45.0)
           (-30.0 30.0)
           (-30.0 30.0)
  end
  begin
     id 13 
     name thorax
     direction -0.000416255 0.999808 -0.0196023   
     length 2.0399   
     axis 0 0 0   XYZ
    dof rx ry rz
    limits (-20.0 45.0)
           (-30.0 30.0)
           (-30.0 30.0)
  end
  begin
     id 14 
     name lowerneck
     direction 0.0627861 0.989205 0.13241   
     length 1.46207   
     axis 0 0 0   XYZ
    dof rx ry rz
    limits (-20.0 45.0)
           (-30.0 30.0)
           (-30.0 30.0)
  end
  begin
     id 15 
     name upperneck
     direction 0.00627179 0.994526 0.104303   
     length 1.41419   
     axis 0 0 0   XYZ
    dof rx ry rz
    limits (-20.0 45.0)
           (-30.0 30.0)
           (-30.0 30.0)
  end
  begin
     id 16
     name head
     direction -0.00443838 0.999688 0.0245968  
     length 1.50718  
     axis 0 0 0   XYZ
    dof rx ry rz
    limits (-20.0 45.0)
           (-30.0 30.0)
           (-30.0 30.0)
  end
  begin
     id 17 
     name lclavicle
     direction 0.758742 0.650995 -0.0227258  
     length 2.86888  
     axis 0 0 0   XYZ
    dof ry rz
    limits (-20.0 10.0)
           (0.0 20.0)
  end
  begin
     id 18 
     name lhumerus
     direction 1 -4.48962e-011 1.06664e-027   
     length 4.65776   
     axis -180 -30 -90   XYZ
    dof rx ry rz
    limits (-60.0 90.0)
           (-90.0 90.0)
           (-90.0 90.0)
  end
  begin
     id 19
     name lradius
     direction 1 -4.48968e-011 1.40404e-026   
     length 3.55539   
     axis -180 -30 -90   XYZ
    dof rx
    limits (-10.0 170.0)
  end
  begin
     id 20
     name lwrist
     direction 1 -4.48976e-011 3.32647e-026   
     length 1.77769   
     axis -2.20186e-014 90 90   XYZ
    dof ry
    limits (-180.0 0.0)
 end
  begin
     id 21 
     name lhand
     direction 1 -4.48982e-011 6.65293e-026   
     length 0.707264   
     axis -4.24514e-014 90 90   XYZ
    dof rx rz
    limits (-90.0 90.0)
           (-45.0 45.0)
  end
  begin
     id 22 
     name lfingers
     direction 1 -4.48966e-011 1.33059e-025   
     length 0.570215   
     axis -8.49028e-014 90 90   XYZ
    dof rx
    limits (0.0 90.0)
  end
  begin
     id 23
     name lthumb
     direction 0.707107 -6.3493e-011 0.707107   
     length 0.818718   
     axis -90 45 2.85299e-015   XYZ
    dof rx rz
    limits (-45.0 45.0)
           (-45.0 45.0)
  end
  begin
     id 24 
     name rclavicle
     direction -0.870343 0.482028 -0.100759   
     length 3.2251  
     axis 0 0 0   XYZ 
    dof ry rz
    limits (-10.0 20.0)
           (-20.0 0.0)
  end
  begin
     id 25 
     name rhumerus
     direction -1 -4.48974e-011 -9.45849e-028  
     length 4.71925   
     axis -180 30 90   XYZ
    dof rx ry rz
    limits (-90.0 60.0)
           (-90.0 90.0)
           (-90.0 90.0)
  end
  begin
     id 26 
     name rradius
     direction -1 -4.48965e-011 1.17607e-026   
     length 3.5699   
     axis -180 30 90   XYZ
    dof rx
    limits (-10.0 170.0)
  end
  begin
     id 27 
     name rwrist
     direction -1 -4.48968e-011 3.32647e-026   
     length 1.78495   
     axis -2.20186e-014 -90 -90   XYZ
    dof ry
    limits (-180.0 0.0)
  end
  begin
     id 28
     name rhand
     direction -1 -4.48995e-011 6.65293e-026   
     length 0.507757   
     axis -4.24514e-014 -90 -90   XYZ
    dof rx rz
    limits (-90.0 90.0)
           (-45.0 45.0)
  end
  begin
     id 29
     name rfingers
     direction -1 -4.48864e-011 1.33059e-025   
     length 0.409367   
     axis -8.49028e-014 -90 -90   XYZ
    dof rx
    limits (0.0 90.0)
  end
  begin
     id 30
     name rthumb
     direction -0.707107 -6.3494e-011 0.707107   
     length 0.587771   
     axis -90 -45 -2.85299e-015   XYZ
    dof rx rz
    limits (-45.0 45.0)
           (-45.0 45.0)
  end
:hierarchy
  begin
    root lhipjoint rhipjoint lowerback
    lhipjoint lfemur
    lfemur ltibia
    ltibia lfoot
    lfoot ltoes
    rhipjoint rfemur
    rfemur rtibia
    rtibia rfoot
    rfoot rtoes
    lowerback upperback
    upperback thorax
    thorax lowerneck lclavicle rclavicle
    lowerneck upperneck
    upperneck head
    lclavicle lhumerus
    lhumerus lradius
    lradius lwrist
    lwrist lhand lthumb
    lhand lfingers
    rclavicle rhumerus
    rhumerus rradius
    rradius rwrist
    rwrist rhand rthumb
    rhand rfingers
  end

#!OML:ASF E:\Steps\Project 1\Capture day 1\Session 2\Subject.ASF
:FULLY-SPECIFIED
:DEGREES
32
root 16.9376 17.9866 20.5634 -154.405 -1.80708 174.975
lowerback -32.0425 -2.69011 -9.09017
upperback -0.505624 -0.78916 -0.181001
thorax 16.2251 -1.29997 4.29827
lowerneck -4.82544 -0.908476 0.15672
upperneck 13.3777 -2.00803 2.24154
head 4.82725 -1.02985 0.538451
rclavicle -1.53645e-014 2.69175e-015
rhumerus -39.2504 -20.7817 -75.4621
rradius 32.9425
rwrist -2.27853
rhand -5.63393 -53.2774
rfingers 7.12502
rthumb 20.1842 -82.2488
lclavicle -1.53645e-014 2.69175e-015
lhumerus -31.111 5.31786 81.6429
lradius 23.1211
lwrist -4.42418
lhand -21.5411 -12.7434
lfingers 7.12502
lthumb 4.85193 17.1811
rfemur -21.3476 2.92938 18.189
rtibia 6.07424
rfoot -19.024 0.939696
rtoes -1.01988
lfemur -23.1931 -9.14441 -24.9447
ltibia 10.3255
lfoot -7.47101 -3.84815
ltoes -4.47736
33
root 16.9367 17.9865 20.5619 -154.477 -1.80069 175.054
lowerback -31.9883 -2.67642 -9.01876
upperback -0.490601 -0.800806 -0.153971
thorax 16.2226 -1.29853 4.28721
lowerneck -4.85773 -0.931223 0.184252
upperneck 13.4212 -2.04348 2.22567
head 4.84614 -1.04715 0.526584
rclavicle 1.52525e-015 -2.41026e-015
rhumerus -39.2794 -20.7207 -75.4605
rradius 33.0093
rwrist -2.35983
rhand -5.51084 -53.5178
rfingers 7.12502
rthumb 20.3025 -82.4767
lclavicle 1.52525e-015 -2.41026e-015
lhumerus -31.1225 5.38118 81.6232
lradius 23.1464
lwrist -4.40923
lhand -21.4349 -12.714
lfingers 7.12502
lthumb 4.95445 17.2081
rfemur -21.0683 2.30265 18.3692
rtibia 5.64207
rfoot -18.7447 1.65689
rtoes -0.566363
lfemur -23.0949 -9.20333 -24.8468
ltibia 10.2751
lfoot -7.50768 -3.74968
ltoes -4.35888
34
root 16.9374 17.9845 20.5645 -154.404 -1.78578 175.084
lowerback -32.051 -2.6897 -9.01435
upperback -0.484072 -0.816978 -0.131892
thorax 16.2612 -1.30792 4.301
lowerneck -4.91127 -0.860381 0.133989
upperneck 13.2268 -1.92336 2.26643
head 4.79481 -0.98196 0.555005
rclavicle -2.83152e-015 -7.7495e-015
rhumerus -39.2737 -20.7564 -75.4366
rradius 32.9956
rwrist -2.20668
rhand -5.6093 -53.5314
rfingers 7.12502
rthumb 20.2079 -82.5002
lclavicle -2.83152e-015 -7.7495e-015
lhumerus -31.0553 5.43107 81.6016
lradius 23.1508
lwrist -4.33845
lhand -21.164 -12.855
lfingers 7.12502
lthumb 5.21597 17.0608
rfemur -21.3768 3.11795 18.2864
rtibia 6.11924
rfoot -19.0397 0.854076
rtoes -0.847926
lfemur -23.1992 -9.17602 -24.7942
ltibia 10.2926
lfoot -7.47962 -3.81955
ltoes -2.70602
35
root 16.9364 17.9856 20.5628 -154.492 -1.80027 175.12
lowerback -32.0154 -2.68063 -8.96312
upperback -0.432506 -0.815687 -0.123601
thorax 16.3087 -1.30296 4.28547
lowerneck -4.96204 -0.846069 0.0886438
upperneck 13.1282 -1.88831 2.28348
head 4.77317 -0.962031 0.569968
rclavicle -6.80216e-016 -5.43552e-016
rhumerus -39.2617 -20.7853 -75.4085
rradius 32.9442
rwrist -2.13391
rhand -5.69493 -53.2049
rfingers 7.12502
rthumb 20.1256 -82.1824
lclavicle -6.80216e-016 -5.43552e-016
lhumerus -30.9658 5.44851 81.5906
lradius 23.0627
lwrist -4.28975
lhand -21.0597 -13.0617
lfingers 7.12502
lthumb 5.31669 16.8516
rfemur -21.1083 2.5822 18.4026
rtibia 5.748
rfoot -18.8681 1.41477
rtoes -0.817368
lfemur -23.0802 -9.24465 -24.7413
ltibia 10.2605
lfoot -7.5295 -3.78794
ltoes -2.29431
36
root 16.9368 17.9839 20.5655 -154.456 -1.8177 175.173
lowerback -32.0252 -2.6721 -8.90953
upperback -0.448871 -0.828439 -0.109842
thorax 16.2957 -1.30466 4.26627
lowerneck -4.93964 -0.911859 0.0458313
upperneck 13.21 -2.00176 2.40212
head 4.79746 -1.01625 0.606817
rclavicle -1.1135e-015 -9.29318e-015
rhumerus -39.2547 -20.8727 -75.3423
rradius 32.8402
rwrist -2.03373
rhand -5.26092 -51.16
rfingers 7.12502
rthumb 20.5427 -80.0931
lclavicle -1.1135e-015 -9.29318e-015
lhumerus -30.9799 5.47918 81.5712
lradius 23.0634
lwrist -4.29361
lhand -21.115 -13.0621
lfingers 7.12502
lthumb 5.26333 16.8525
rfemur -21.4016 3.47924 18.3375
rtibia 6.29301
rfoot -19.2365 0.542558
rtoes -0.600702
lfemur -23.1596 -9.14481 -24.6969
ltibia 10.3133
lfoot -7.50621 -3.73312
ltoes -3.9451
37
root 16.9343 17.9855 20.5648 -154.517 -1.81903 175.186
lowerback -31.9755 -2.64906 -8.85504
upperback -0.42517 -0.814781 -0.120287
thorax 16.3007 -1.29278 4.23323
lowerneck -4.96856 -0.964138 0.0368171
upperneck 13.2644 -2.08442 2.44969
head 4.82076 -1.05534 0.617811
rclavicle -1.64541e-015 -1.84839e-014
rhumerus -39.2151 -21.0558 -75.2583
rradius 32.6967
rwrist -1.81484
rhand -5.32187 -54.3858
rfingers 7.12502
rthumb 20.4841 -83.3252
lclavicle -1.64541e-015 -1.84839e-014
lhumerus -30.9743 5.56423 81.5429
lradius 23.0887
lwrist -4.39597
lhand -21.1328 -13.0038
lfingers 7.12502
lthumb 5.24609 16.9113
rfemur -21.4067 3.59266 18.3285
rtibia 6.44615
rfoot -19.324 0.420364
rtoes -0.399159
lfemur -23.0874 -9.22364 -24.686
ltibia 10.3086
lfoot -7.3758 -3.42204
ltoes -4.5262
38
root 16.9365 17.9844 20.5688 -154.398 -1.85183 175.208
lowerback -32.0204 -2.67781 -8.88365
upperback -0.470067 -0.853301 -0.0837027
thorax 16.2723 -1.31364 4.27072
lowerneck -4.97389 -0.967254 0.0287943
upperneck 13.2589 -2.077 2.38552
head 4.81922 -1.05507 0.5998
rclavicle 7.56158e-015 -1.91889e-014
rhumerus -39.2477 -20.9236 -75.258
rradius 32.7088
rwrist -1.9227
rhand -5.64552 -52.1723
rfingers 7.12502
rthumb 20.1731 -81.1448
lclavicle 7.56158e-015 -1.91889e-014
lhumerus -30.971 5.6855 81.5103
lradius 23.0106
lwrist -4.5422
lhand -21.0701 -13.2153
lfingers 7.12502
lthumb 5.30664 16.6982
rfemur -21.5204 3.75747 18.3435
rtibia 6.39588
rfoot -19.3303 0.267156
rtoes -0.37506
lfemur -23.2797 -9.08585 -24.6486
ltibia 10.3985
lfoot -7.26504 -3.49939
ltoes -4.08828
